<svg xmlns='http://www.w3.org/2000/svg' version='1.1'>  <polyline points="13.996582,49.998779
13.996582,50.001526
14.002075,50.001526
14.002075,49.998779
13.996582,49.998779" style="fill:none;stroke:black;stroke-width:1" />
  <polyline points="13.999329,49.999466
13.999329,50.000153
14.000702,50.000153
14.000702,49.999466
13.999329,49.999466" style="fill:none;stroke:black;stroke-width:1" />
  <polyline points="13.710938,49.921875
13.710938,50.097656
14.062500,50.097656
14.062500,49.921875
13.710938,49.921875" style="fill:none;stroke:black;stroke-width:1" />
  <polyline points="11.250000,47.812500
11.250000,50.625000
16.875000,50.625000
16.875000,47.812500
11.250000,47.812500" style="fill:none;stroke:black;stroke-width:1" />
  <polyline points="13.999929,49.999981
13.999929,50.000024
14.000015,50.000024
14.000015,49.999981
13.999929,49.999981" style="fill:none;stroke:black;stroke-width:1" />
  <polyline points="13.974609,49.965820
13.974609,50.009766
14.062500,50.009766
14.062500,49.965820
13.974609,49.965820" style="fill:none;stroke:black;stroke-width:1" />
  <polyline points="12.656250,49.921875
12.656250,50.625000
14.062500,50.625000
14.062500,49.921875
12.656250,49.921875" style="fill:none;stroke:black;stroke-width:1" />
  <polyline points="13.999672,49.999981
13.999672,50.000153
14.000015,50.000153
14.000015,49.999981
13.999672,49.999981" style="fill:none;stroke:black;stroke-width:1" />
  <polyline points="13.996582,49.998779
13.996582,50.009766
14.018555,50.009766
14.018555,49.998779
13.996582,49.998779" style="fill:none;stroke:black;stroke-width:1" />
  <polyline points="0.000000,45.000000
0.000000,56.250000
22.500000,56.250000
22.500000,45.000000
0.000000,45.000000" style="fill:none;stroke:black;stroke-width:1" />
</svg> 